G04 #@! TF.FileFunction,Copper,L2,Bot,Signal*
%FSLAX46Y46*%
G04 Gerber Fmt 4.6, Leading zero omitted, Abs format (unit mm)*
G04 Created by KiCad (PCBNEW 4.0.6) date 2017 October 10, Tuesday 00:19:03*
%MOMM*%
%LPD*%
G01*
G04 APERTURE LIST*
%ADD10C,0.100000*%
%ADD11C,0.685800*%
%ADD12R,0.800000X0.900000*%
%ADD13R,0.900000X0.800000*%
%ADD14R,0.900000X0.500000*%
%ADD15R,0.500000X0.900000*%
%ADD16R,1.700000X1.700000*%
%ADD17O,1.700000X1.700000*%
%ADD18C,1.998980*%
%ADD19R,1.800000X1.800000*%
%ADD20C,1.800000*%
%ADD21C,0.508000*%
%ADD22C,0.762000*%
%ADD23C,0.254000*%
G04 APERTURE END LIST*
D10*
D11*
X105435400Y-75869800D03*
X110642400Y-79121000D03*
X108585000Y-72517000D03*
X133985000Y-76631800D03*
X117246400Y-76479400D03*
X118237000Y-72390000D03*
X123063000Y-76073000D03*
X118364000Y-76454000D03*
X123012200Y-72161400D03*
X133985000Y-77851000D03*
D12*
X103444000Y-77486000D03*
X105344000Y-77486000D03*
X104394000Y-79486000D03*
D13*
X106950000Y-79690000D03*
X106950000Y-77790000D03*
X108950000Y-78740000D03*
D14*
X103378000Y-75934000D03*
X103378000Y-74434000D03*
D15*
X99530600Y-79044800D03*
X98030600Y-79044800D03*
X108954000Y-81407000D03*
X107454000Y-81407000D03*
D12*
X101280000Y-77200000D03*
X99380000Y-77200000D03*
X100330000Y-75200000D03*
D14*
X105156000Y-72148000D03*
X105156000Y-73648000D03*
D15*
X102070600Y-79044800D03*
X100570600Y-79044800D03*
D16*
X102717600Y-72136000D03*
D17*
X100177600Y-72136000D03*
D16*
X125984000Y-75184000D03*
D17*
X128524000Y-75184000D03*
X131064000Y-75184000D03*
D18*
X129133600Y-89865200D03*
X132308600Y-89865200D03*
X135483600Y-89865200D03*
X127889000Y-72263000D03*
X131064000Y-72263000D03*
X134239000Y-72263000D03*
D11*
X133985000Y-79375000D03*
X110693200Y-80746600D03*
X110744000Y-72517000D03*
D19*
X98806000Y-90424000D03*
D20*
X101346000Y-90424000D03*
D19*
X106680000Y-90424000D03*
D20*
X104140000Y-90424000D03*
D21*
X101346000Y-90424000D02*
X104140000Y-90424000D01*
D22*
X100177600Y-72136000D02*
X100177600Y-74269600D01*
X100330000Y-74422000D02*
X100330000Y-75200000D01*
X100177600Y-74269600D02*
X100330000Y-74422000D01*
X107454000Y-81407000D02*
X106680000Y-81407000D01*
X106680000Y-81407000D02*
X106680000Y-90424000D01*
D21*
X98030600Y-79044800D02*
X98030600Y-88175400D01*
X98806000Y-88950800D02*
X98806000Y-90424000D01*
X98030600Y-88175400D02*
X98806000Y-88950800D01*
X103378000Y-75934000D02*
X103378000Y-77420000D01*
X103378000Y-77420000D02*
X103444000Y-77486000D01*
D23*
X103124000Y-78994000D02*
X102946200Y-79171800D01*
X102946200Y-79171800D02*
X102197600Y-79171800D01*
X102197600Y-79171800D02*
X102070600Y-79044800D01*
X106950000Y-79690000D02*
X106950000Y-79010000D01*
X103632000Y-78486000D02*
X103124000Y-78994000D01*
X104902000Y-78486000D02*
X103632000Y-78486000D01*
X105156000Y-78740000D02*
X104902000Y-78486000D01*
X106680000Y-78740000D02*
X105156000Y-78740000D01*
X106950000Y-79010000D02*
X106680000Y-78740000D01*
X103124000Y-78994000D02*
X103112000Y-78994000D01*
D21*
X104394000Y-79486000D02*
X104156000Y-79486000D01*
X104156000Y-79486000D02*
X103352600Y-80289400D01*
X103352600Y-80289400D02*
X100279200Y-80289400D01*
X100279200Y-80289400D02*
X100025200Y-80035400D01*
X100025200Y-80035400D02*
X100025200Y-79044800D01*
X100570600Y-79044800D02*
X100025200Y-79044800D01*
X100025200Y-79044800D02*
X99530600Y-79044800D01*
D22*
X108950000Y-78740000D02*
X108950000Y-81403000D01*
X108950000Y-81403000D02*
X108954000Y-81407000D01*
X106950000Y-77790000D02*
X105648000Y-77790000D01*
X105648000Y-77790000D02*
X105344000Y-77486000D01*
X105156000Y-72148000D02*
X106160000Y-72148000D01*
X106950000Y-76470000D02*
X106950000Y-77790000D01*
X106680000Y-76200000D02*
X106950000Y-76470000D01*
X106680000Y-72668000D02*
X106680000Y-76200000D01*
X106160000Y-72148000D02*
X106680000Y-72668000D01*
X102717600Y-72136000D02*
X105144000Y-72136000D01*
X105144000Y-72136000D02*
X105156000Y-72148000D01*
D23*
X102971600Y-72390000D02*
X102717600Y-72136000D01*
D21*
X103378000Y-74434000D02*
X102858000Y-74434000D01*
X101280000Y-76012000D02*
X101280000Y-77200000D01*
X102858000Y-74434000D02*
X101280000Y-76012000D01*
X105156000Y-73648000D02*
X104164000Y-73648000D01*
X104164000Y-73648000D02*
X103378000Y-74434000D01*
D23*
G36*
X135837221Y-70611827D02*
X136398000Y-71172606D01*
X136398000Y-77470000D01*
X136408006Y-77519410D01*
X136435197Y-77559803D01*
X137070197Y-78194803D01*
X137112211Y-78222666D01*
X137160000Y-78232000D01*
X137234394Y-78232000D01*
X137667669Y-78665275D01*
X137617567Y-86656559D01*
X137190007Y-87019984D01*
X131564568Y-86969980D01*
X131114800Y-86627300D01*
X131114800Y-82042000D01*
X131104794Y-81992590D01*
X131060325Y-81937745D01*
X130476125Y-81531345D01*
X130429850Y-81511342D01*
X130401631Y-81508615D01*
X110743135Y-81813398D01*
X109592464Y-81811194D01*
X109592464Y-81796680D01*
X109657996Y-81698605D01*
X109716000Y-81407000D01*
X109712000Y-81386891D01*
X109712000Y-79358251D01*
X109757859Y-79291134D01*
X109788464Y-79140000D01*
X109788464Y-78340000D01*
X109761897Y-78198810D01*
X109678454Y-78069135D01*
X109551134Y-77982141D01*
X109400000Y-77951536D01*
X108500000Y-77951536D01*
X108358810Y-77978103D01*
X108229135Y-78061546D01*
X108142141Y-78188866D01*
X108111536Y-78340000D01*
X108111536Y-79140000D01*
X108138103Y-79281190D01*
X108188000Y-79358733D01*
X108188000Y-81266235D01*
X108157996Y-81115395D01*
X108092464Y-81017320D01*
X108092464Y-80957000D01*
X108065897Y-80815810D01*
X107982454Y-80686135D01*
X107855134Y-80599141D01*
X107704000Y-80568536D01*
X107204000Y-80568536D01*
X107062810Y-80595103D01*
X106985267Y-80645000D01*
X106680000Y-80645000D01*
X106388395Y-80703004D01*
X106141185Y-80868185D01*
X105976004Y-81115395D01*
X105918000Y-81407000D01*
X105918000Y-81804154D01*
X98665600Y-81790261D01*
X98665600Y-79511906D01*
X98669064Y-79494800D01*
X98669064Y-78594800D01*
X98892136Y-78594800D01*
X98892136Y-79494800D01*
X98918703Y-79635990D01*
X99002146Y-79765665D01*
X99129466Y-79852659D01*
X99280600Y-79883264D01*
X99390200Y-79883264D01*
X99390200Y-80035400D01*
X99438536Y-80278404D01*
X99576187Y-80484413D01*
X99830187Y-80738413D01*
X100036196Y-80876064D01*
X100279200Y-80924400D01*
X103352600Y-80924400D01*
X103595604Y-80876064D01*
X103801613Y-80738413D01*
X104215562Y-80324464D01*
X104794000Y-80324464D01*
X104935190Y-80297897D01*
X105064865Y-80214454D01*
X105151859Y-80087134D01*
X105182464Y-79936000D01*
X105182464Y-79248000D01*
X106120041Y-79248000D01*
X106111536Y-79290000D01*
X106111536Y-80090000D01*
X106138103Y-80231190D01*
X106221546Y-80360865D01*
X106348866Y-80447859D01*
X106500000Y-80478464D01*
X107400000Y-80478464D01*
X107541190Y-80451897D01*
X107670865Y-80368454D01*
X107757859Y-80241134D01*
X107788464Y-80090000D01*
X107788464Y-79290000D01*
X107761897Y-79148810D01*
X107678454Y-79019135D01*
X107551134Y-78932141D01*
X107437954Y-78909222D01*
X107419331Y-78815597D01*
X107309210Y-78650790D01*
X107039210Y-78380790D01*
X106874403Y-78270669D01*
X106680000Y-78232000D01*
X105366420Y-78232000D01*
X105261210Y-78126790D01*
X105096403Y-78016669D01*
X104902000Y-77978000D01*
X104223959Y-77978000D01*
X104232464Y-77936000D01*
X104232464Y-77036000D01*
X104205897Y-76894810D01*
X104122454Y-76765135D01*
X104013000Y-76690348D01*
X104013000Y-76517706D01*
X104098865Y-76462454D01*
X104185859Y-76335134D01*
X104216464Y-76184000D01*
X104216464Y-75684000D01*
X104189897Y-75542810D01*
X104106454Y-75413135D01*
X103979134Y-75326141D01*
X103828000Y-75295536D01*
X102928000Y-75295536D01*
X102886723Y-75303303D01*
X103117562Y-75072464D01*
X103828000Y-75072464D01*
X103969190Y-75045897D01*
X104098865Y-74962454D01*
X104185859Y-74835134D01*
X104216464Y-74684000D01*
X104216464Y-74493562D01*
X104376026Y-74334000D01*
X124745536Y-74334000D01*
X124745536Y-76034000D01*
X124772103Y-76175190D01*
X124855546Y-76304865D01*
X124982866Y-76391859D01*
X125134000Y-76422464D01*
X126834000Y-76422464D01*
X126975190Y-76395897D01*
X127104865Y-76312454D01*
X127191859Y-76185134D01*
X127222464Y-76034000D01*
X127222464Y-75159883D01*
X127293000Y-75159883D01*
X127293000Y-75208117D01*
X127386704Y-75679200D01*
X127653552Y-76078565D01*
X128052917Y-76345413D01*
X128524000Y-76439117D01*
X128995083Y-76345413D01*
X129394448Y-76078565D01*
X129661296Y-75679200D01*
X129755000Y-75208117D01*
X129755000Y-75159883D01*
X129833000Y-75159883D01*
X129833000Y-75208117D01*
X129926704Y-75679200D01*
X130193552Y-76078565D01*
X130592917Y-76345413D01*
X131064000Y-76439117D01*
X131535083Y-76345413D01*
X131934448Y-76078565D01*
X132201296Y-75679200D01*
X132295000Y-75208117D01*
X132295000Y-75159883D01*
X132201296Y-74688800D01*
X131934448Y-74289435D01*
X131535083Y-74022587D01*
X131064000Y-73928883D01*
X130592917Y-74022587D01*
X130193552Y-74289435D01*
X129926704Y-74688800D01*
X129833000Y-75159883D01*
X129755000Y-75159883D01*
X129661296Y-74688800D01*
X129394448Y-74289435D01*
X128995083Y-74022587D01*
X128524000Y-73928883D01*
X128052917Y-74022587D01*
X127653552Y-74289435D01*
X127386704Y-74688800D01*
X127293000Y-75159883D01*
X127222464Y-75159883D01*
X127222464Y-74334000D01*
X127195897Y-74192810D01*
X127112454Y-74063135D01*
X126985134Y-73976141D01*
X126834000Y-73945536D01*
X125134000Y-73945536D01*
X124992810Y-73972103D01*
X124863135Y-74055546D01*
X124776141Y-74182866D01*
X124745536Y-74334000D01*
X104376026Y-74334000D01*
X104427026Y-74283000D01*
X104688894Y-74283000D01*
X104706000Y-74286464D01*
X105606000Y-74286464D01*
X105747190Y-74259897D01*
X105876865Y-74176454D01*
X105963859Y-74049134D01*
X105994464Y-73898000D01*
X105994464Y-73398000D01*
X105967897Y-73256810D01*
X105884454Y-73127135D01*
X105757134Y-73040141D01*
X105606000Y-73009536D01*
X104706000Y-73009536D01*
X104687591Y-73013000D01*
X104164000Y-73013000D01*
X103920996Y-73061336D01*
X103714987Y-73198987D01*
X103118438Y-73795536D01*
X102928000Y-73795536D01*
X102909591Y-73799000D01*
X102858000Y-73799000D01*
X102614996Y-73847336D01*
X102408987Y-73984987D01*
X101118464Y-75275510D01*
X101118464Y-74750000D01*
X101092000Y-74609357D01*
X101092000Y-74422000D01*
X101033996Y-74130395D01*
X100939600Y-73989122D01*
X100939600Y-73103028D01*
X101048048Y-73030565D01*
X101314896Y-72631200D01*
X101408600Y-72160117D01*
X101408600Y-72111883D01*
X101314896Y-71640800D01*
X101048048Y-71241435D01*
X100648683Y-70974587D01*
X100177600Y-70880883D01*
X99706517Y-70974587D01*
X99307152Y-71241435D01*
X99040304Y-71640800D01*
X98946600Y-72111883D01*
X98946600Y-72160117D01*
X99040304Y-72631200D01*
X99307152Y-73030565D01*
X99415600Y-73103028D01*
X99415600Y-74269600D01*
X99473604Y-74561205D01*
X99555076Y-74683136D01*
X99541536Y-74750000D01*
X99541536Y-75650000D01*
X99568103Y-75791190D01*
X99651546Y-75920865D01*
X99778866Y-76007859D01*
X99930000Y-76038464D01*
X100645000Y-76038464D01*
X100645000Y-76448468D01*
X100609135Y-76471546D01*
X100522141Y-76598866D01*
X100491536Y-76750000D01*
X100491536Y-77650000D01*
X100518103Y-77791190D01*
X100601546Y-77920865D01*
X100728866Y-78007859D01*
X100880000Y-78038464D01*
X101680000Y-78038464D01*
X101821190Y-78011897D01*
X101950865Y-77928454D01*
X102037859Y-77801134D01*
X102068464Y-77650000D01*
X102068464Y-76750000D01*
X102041897Y-76608810D01*
X101958454Y-76479135D01*
X101915000Y-76449444D01*
X101915000Y-76275026D01*
X102548045Y-75641981D01*
X102539536Y-75684000D01*
X102539536Y-76184000D01*
X102566103Y-76325190D01*
X102649546Y-76454865D01*
X102743000Y-76518719D01*
X102743000Y-76801650D01*
X102686141Y-76884866D01*
X102655536Y-77036000D01*
X102655536Y-77936000D01*
X102682103Y-78077190D01*
X102765546Y-78206865D01*
X102892866Y-78293859D01*
X103044000Y-78324464D01*
X103075115Y-78324464D01*
X102788954Y-78610626D01*
X102752790Y-78634790D01*
X102733406Y-78663800D01*
X102709064Y-78663800D01*
X102709064Y-78594800D01*
X102682497Y-78453610D01*
X102599054Y-78323935D01*
X102471734Y-78236941D01*
X102320600Y-78206336D01*
X101820600Y-78206336D01*
X101679410Y-78232903D01*
X101549735Y-78316346D01*
X101462741Y-78443666D01*
X101432136Y-78594800D01*
X101432136Y-79494800D01*
X101458703Y-79635990D01*
X101470549Y-79654400D01*
X101172674Y-79654400D01*
X101178459Y-79645934D01*
X101209064Y-79494800D01*
X101209064Y-78594800D01*
X101182497Y-78453610D01*
X101099054Y-78323935D01*
X100971734Y-78236941D01*
X100820600Y-78206336D01*
X100320600Y-78206336D01*
X100179410Y-78232903D01*
X100049735Y-78316346D01*
X100049166Y-78317179D01*
X99931734Y-78236941D01*
X99780600Y-78206336D01*
X99280600Y-78206336D01*
X99139410Y-78232903D01*
X99009735Y-78316346D01*
X98922741Y-78443666D01*
X98892136Y-78594800D01*
X98669064Y-78594800D01*
X98642497Y-78453610D01*
X98559054Y-78323935D01*
X98431734Y-78236941D01*
X98280600Y-78206336D01*
X97780600Y-78206336D01*
X97639410Y-78232903D01*
X97509735Y-78316346D01*
X97422741Y-78443666D01*
X97392136Y-78594800D01*
X97392136Y-79494800D01*
X97395600Y-79513209D01*
X97395600Y-81656268D01*
X97180273Y-81453607D01*
X97169309Y-76750000D01*
X98591536Y-76750000D01*
X98591536Y-77650000D01*
X98618103Y-77791190D01*
X98701546Y-77920865D01*
X98828866Y-78007859D01*
X98980000Y-78038464D01*
X99780000Y-78038464D01*
X99921190Y-78011897D01*
X100050865Y-77928454D01*
X100137859Y-77801134D01*
X100168464Y-77650000D01*
X100168464Y-76750000D01*
X100141897Y-76608810D01*
X100058454Y-76479135D01*
X99931134Y-76392141D01*
X99780000Y-76361536D01*
X98980000Y-76361536D01*
X98838810Y-76388103D01*
X98709135Y-76471546D01*
X98622141Y-76598866D01*
X98591536Y-76750000D01*
X97169309Y-76750000D01*
X97155123Y-70664483D01*
X97334433Y-70485173D01*
X135837221Y-70611827D01*
X135837221Y-70611827D01*
G37*
X135837221Y-70611827D02*
X136398000Y-71172606D01*
X136398000Y-77470000D01*
X136408006Y-77519410D01*
X136435197Y-77559803D01*
X137070197Y-78194803D01*
X137112211Y-78222666D01*
X137160000Y-78232000D01*
X137234394Y-78232000D01*
X137667669Y-78665275D01*
X137617567Y-86656559D01*
X137190007Y-87019984D01*
X131564568Y-86969980D01*
X131114800Y-86627300D01*
X131114800Y-82042000D01*
X131104794Y-81992590D01*
X131060325Y-81937745D01*
X130476125Y-81531345D01*
X130429850Y-81511342D01*
X130401631Y-81508615D01*
X110743135Y-81813398D01*
X109592464Y-81811194D01*
X109592464Y-81796680D01*
X109657996Y-81698605D01*
X109716000Y-81407000D01*
X109712000Y-81386891D01*
X109712000Y-79358251D01*
X109757859Y-79291134D01*
X109788464Y-79140000D01*
X109788464Y-78340000D01*
X109761897Y-78198810D01*
X109678454Y-78069135D01*
X109551134Y-77982141D01*
X109400000Y-77951536D01*
X108500000Y-77951536D01*
X108358810Y-77978103D01*
X108229135Y-78061546D01*
X108142141Y-78188866D01*
X108111536Y-78340000D01*
X108111536Y-79140000D01*
X108138103Y-79281190D01*
X108188000Y-79358733D01*
X108188000Y-81266235D01*
X108157996Y-81115395D01*
X108092464Y-81017320D01*
X108092464Y-80957000D01*
X108065897Y-80815810D01*
X107982454Y-80686135D01*
X107855134Y-80599141D01*
X107704000Y-80568536D01*
X107204000Y-80568536D01*
X107062810Y-80595103D01*
X106985267Y-80645000D01*
X106680000Y-80645000D01*
X106388395Y-80703004D01*
X106141185Y-80868185D01*
X105976004Y-81115395D01*
X105918000Y-81407000D01*
X105918000Y-81804154D01*
X98665600Y-81790261D01*
X98665600Y-79511906D01*
X98669064Y-79494800D01*
X98669064Y-78594800D01*
X98892136Y-78594800D01*
X98892136Y-79494800D01*
X98918703Y-79635990D01*
X99002146Y-79765665D01*
X99129466Y-79852659D01*
X99280600Y-79883264D01*
X99390200Y-79883264D01*
X99390200Y-80035400D01*
X99438536Y-80278404D01*
X99576187Y-80484413D01*
X99830187Y-80738413D01*
X100036196Y-80876064D01*
X100279200Y-80924400D01*
X103352600Y-80924400D01*
X103595604Y-80876064D01*
X103801613Y-80738413D01*
X104215562Y-80324464D01*
X104794000Y-80324464D01*
X104935190Y-80297897D01*
X105064865Y-80214454D01*
X105151859Y-80087134D01*
X105182464Y-79936000D01*
X105182464Y-79248000D01*
X106120041Y-79248000D01*
X106111536Y-79290000D01*
X106111536Y-80090000D01*
X106138103Y-80231190D01*
X106221546Y-80360865D01*
X106348866Y-80447859D01*
X106500000Y-80478464D01*
X107400000Y-80478464D01*
X107541190Y-80451897D01*
X107670865Y-80368454D01*
X107757859Y-80241134D01*
X107788464Y-80090000D01*
X107788464Y-79290000D01*
X107761897Y-79148810D01*
X107678454Y-79019135D01*
X107551134Y-78932141D01*
X107437954Y-78909222D01*
X107419331Y-78815597D01*
X107309210Y-78650790D01*
X107039210Y-78380790D01*
X106874403Y-78270669D01*
X106680000Y-78232000D01*
X105366420Y-78232000D01*
X105261210Y-78126790D01*
X105096403Y-78016669D01*
X104902000Y-77978000D01*
X104223959Y-77978000D01*
X104232464Y-77936000D01*
X104232464Y-77036000D01*
X104205897Y-76894810D01*
X104122454Y-76765135D01*
X104013000Y-76690348D01*
X104013000Y-76517706D01*
X104098865Y-76462454D01*
X104185859Y-76335134D01*
X104216464Y-76184000D01*
X104216464Y-75684000D01*
X104189897Y-75542810D01*
X104106454Y-75413135D01*
X103979134Y-75326141D01*
X103828000Y-75295536D01*
X102928000Y-75295536D01*
X102886723Y-75303303D01*
X103117562Y-75072464D01*
X103828000Y-75072464D01*
X103969190Y-75045897D01*
X104098865Y-74962454D01*
X104185859Y-74835134D01*
X104216464Y-74684000D01*
X104216464Y-74493562D01*
X104376026Y-74334000D01*
X124745536Y-74334000D01*
X124745536Y-76034000D01*
X124772103Y-76175190D01*
X124855546Y-76304865D01*
X124982866Y-76391859D01*
X125134000Y-76422464D01*
X126834000Y-76422464D01*
X126975190Y-76395897D01*
X127104865Y-76312454D01*
X127191859Y-76185134D01*
X127222464Y-76034000D01*
X127222464Y-75159883D01*
X127293000Y-75159883D01*
X127293000Y-75208117D01*
X127386704Y-75679200D01*
X127653552Y-76078565D01*
X128052917Y-76345413D01*
X128524000Y-76439117D01*
X128995083Y-76345413D01*
X129394448Y-76078565D01*
X129661296Y-75679200D01*
X129755000Y-75208117D01*
X129755000Y-75159883D01*
X129833000Y-75159883D01*
X129833000Y-75208117D01*
X129926704Y-75679200D01*
X130193552Y-76078565D01*
X130592917Y-76345413D01*
X131064000Y-76439117D01*
X131535083Y-76345413D01*
X131934448Y-76078565D01*
X132201296Y-75679200D01*
X132295000Y-75208117D01*
X132295000Y-75159883D01*
X132201296Y-74688800D01*
X131934448Y-74289435D01*
X131535083Y-74022587D01*
X131064000Y-73928883D01*
X130592917Y-74022587D01*
X130193552Y-74289435D01*
X129926704Y-74688800D01*
X129833000Y-75159883D01*
X129755000Y-75159883D01*
X129661296Y-74688800D01*
X129394448Y-74289435D01*
X128995083Y-74022587D01*
X128524000Y-73928883D01*
X128052917Y-74022587D01*
X127653552Y-74289435D01*
X127386704Y-74688800D01*
X127293000Y-75159883D01*
X127222464Y-75159883D01*
X127222464Y-74334000D01*
X127195897Y-74192810D01*
X127112454Y-74063135D01*
X126985134Y-73976141D01*
X126834000Y-73945536D01*
X125134000Y-73945536D01*
X124992810Y-73972103D01*
X124863135Y-74055546D01*
X124776141Y-74182866D01*
X124745536Y-74334000D01*
X104376026Y-74334000D01*
X104427026Y-74283000D01*
X104688894Y-74283000D01*
X104706000Y-74286464D01*
X105606000Y-74286464D01*
X105747190Y-74259897D01*
X105876865Y-74176454D01*
X105963859Y-74049134D01*
X105994464Y-73898000D01*
X105994464Y-73398000D01*
X105967897Y-73256810D01*
X105884454Y-73127135D01*
X105757134Y-73040141D01*
X105606000Y-73009536D01*
X104706000Y-73009536D01*
X104687591Y-73013000D01*
X104164000Y-73013000D01*
X103920996Y-73061336D01*
X103714987Y-73198987D01*
X103118438Y-73795536D01*
X102928000Y-73795536D01*
X102909591Y-73799000D01*
X102858000Y-73799000D01*
X102614996Y-73847336D01*
X102408987Y-73984987D01*
X101118464Y-75275510D01*
X101118464Y-74750000D01*
X101092000Y-74609357D01*
X101092000Y-74422000D01*
X101033996Y-74130395D01*
X100939600Y-73989122D01*
X100939600Y-73103028D01*
X101048048Y-73030565D01*
X101314896Y-72631200D01*
X101408600Y-72160117D01*
X101408600Y-72111883D01*
X101314896Y-71640800D01*
X101048048Y-71241435D01*
X100648683Y-70974587D01*
X100177600Y-70880883D01*
X99706517Y-70974587D01*
X99307152Y-71241435D01*
X99040304Y-71640800D01*
X98946600Y-72111883D01*
X98946600Y-72160117D01*
X99040304Y-72631200D01*
X99307152Y-73030565D01*
X99415600Y-73103028D01*
X99415600Y-74269600D01*
X99473604Y-74561205D01*
X99555076Y-74683136D01*
X99541536Y-74750000D01*
X99541536Y-75650000D01*
X99568103Y-75791190D01*
X99651546Y-75920865D01*
X99778866Y-76007859D01*
X99930000Y-76038464D01*
X100645000Y-76038464D01*
X100645000Y-76448468D01*
X100609135Y-76471546D01*
X100522141Y-76598866D01*
X100491536Y-76750000D01*
X100491536Y-77650000D01*
X100518103Y-77791190D01*
X100601546Y-77920865D01*
X100728866Y-78007859D01*
X100880000Y-78038464D01*
X101680000Y-78038464D01*
X101821190Y-78011897D01*
X101950865Y-77928454D01*
X102037859Y-77801134D01*
X102068464Y-77650000D01*
X102068464Y-76750000D01*
X102041897Y-76608810D01*
X101958454Y-76479135D01*
X101915000Y-76449444D01*
X101915000Y-76275026D01*
X102548045Y-75641981D01*
X102539536Y-75684000D01*
X102539536Y-76184000D01*
X102566103Y-76325190D01*
X102649546Y-76454865D01*
X102743000Y-76518719D01*
X102743000Y-76801650D01*
X102686141Y-76884866D01*
X102655536Y-77036000D01*
X102655536Y-77936000D01*
X102682103Y-78077190D01*
X102765546Y-78206865D01*
X102892866Y-78293859D01*
X103044000Y-78324464D01*
X103075115Y-78324464D01*
X102788954Y-78610626D01*
X102752790Y-78634790D01*
X102733406Y-78663800D01*
X102709064Y-78663800D01*
X102709064Y-78594800D01*
X102682497Y-78453610D01*
X102599054Y-78323935D01*
X102471734Y-78236941D01*
X102320600Y-78206336D01*
X101820600Y-78206336D01*
X101679410Y-78232903D01*
X101549735Y-78316346D01*
X101462741Y-78443666D01*
X101432136Y-78594800D01*
X101432136Y-79494800D01*
X101458703Y-79635990D01*
X101470549Y-79654400D01*
X101172674Y-79654400D01*
X101178459Y-79645934D01*
X101209064Y-79494800D01*
X101209064Y-78594800D01*
X101182497Y-78453610D01*
X101099054Y-78323935D01*
X100971734Y-78236941D01*
X100820600Y-78206336D01*
X100320600Y-78206336D01*
X100179410Y-78232903D01*
X100049735Y-78316346D01*
X100049166Y-78317179D01*
X99931734Y-78236941D01*
X99780600Y-78206336D01*
X99280600Y-78206336D01*
X99139410Y-78232903D01*
X99009735Y-78316346D01*
X98922741Y-78443666D01*
X98892136Y-78594800D01*
X98669064Y-78594800D01*
X98642497Y-78453610D01*
X98559054Y-78323935D01*
X98431734Y-78236941D01*
X98280600Y-78206336D01*
X97780600Y-78206336D01*
X97639410Y-78232903D01*
X97509735Y-78316346D01*
X97422741Y-78443666D01*
X97392136Y-78594800D01*
X97392136Y-79494800D01*
X97395600Y-79513209D01*
X97395600Y-81656268D01*
X97180273Y-81453607D01*
X97169309Y-76750000D01*
X98591536Y-76750000D01*
X98591536Y-77650000D01*
X98618103Y-77791190D01*
X98701546Y-77920865D01*
X98828866Y-78007859D01*
X98980000Y-78038464D01*
X99780000Y-78038464D01*
X99921190Y-78011897D01*
X100050865Y-77928454D01*
X100137859Y-77801134D01*
X100168464Y-77650000D01*
X100168464Y-76750000D01*
X100141897Y-76608810D01*
X100058454Y-76479135D01*
X99931134Y-76392141D01*
X99780000Y-76361536D01*
X98980000Y-76361536D01*
X98838810Y-76388103D01*
X98709135Y-76471546D01*
X98622141Y-76598866D01*
X98591536Y-76750000D01*
X97169309Y-76750000D01*
X97155123Y-70664483D01*
X97334433Y-70485173D01*
X135837221Y-70611827D01*
M02*
