G04 #@! TF.FileFunction,Soldermask,Top*
%FSLAX46Y46*%
G04 Gerber Fmt 4.6, Leading zero omitted, Abs format (unit mm)*
G04 Created by KiCad (PCBNEW 4.0.6) date 2017 October 10, Tuesday 00:19:03*
%MOMM*%
%LPD*%
G01*
G04 APERTURE LIST*
%ADD10C,0.100000*%
%ADD11R,1.620000X1.050000*%
%ADD12R,3.900000X2.000000*%
%ADD13R,2.000000X3.400000*%
%ADD14R,1.400000X1.650000*%
%ADD15R,1.650000X1.400000*%
%ADD16R,1.900000X2.600000*%
%ADD17R,1.300000X0.900000*%
%ADD18R,1.150000X1.200000*%
%ADD19R,2.000000X3.000000*%
%ADD20R,2.100000X2.100000*%
%ADD21O,2.100000X2.100000*%
%ADD22R,1.600000X1.800000*%
%ADD23C,2.398980*%
%ADD24R,2.200000X2.200000*%
%ADD25C,2.200000*%
%ADD26C,2.600000*%
G04 APERTURE END LIST*
D10*
D11*
X119674000Y-80058300D03*
X119674000Y-79108300D03*
X119674000Y-78158300D03*
X117054000Y-78158300D03*
X117054000Y-80058300D03*
D12*
X98646000Y-77393800D03*
X104046000Y-77393800D03*
D13*
X108839000Y-84673800D03*
X108839000Y-80273800D03*
D14*
X113401600Y-76657200D03*
X115401600Y-76657200D03*
D15*
X121488200Y-81162400D03*
X121488200Y-79162400D03*
D16*
X98654000Y-84759800D03*
X105054000Y-84759800D03*
X112624000Y-85013800D03*
X119024000Y-85013800D03*
X125806600Y-83972400D03*
X132206600Y-83972400D03*
D17*
X113639600Y-79947200D03*
X113639600Y-78447200D03*
D15*
X115265200Y-80349600D03*
X115265200Y-78349600D03*
X123291600Y-81162400D03*
X123291600Y-79162400D03*
D18*
X124968000Y-77710600D03*
X124968000Y-79210600D03*
D19*
X135686800Y-83207000D03*
X135686800Y-79607000D03*
D17*
X126453900Y-79147100D03*
X126453900Y-77647100D03*
X121437400Y-77724700D03*
X121437400Y-76224700D03*
X130213100Y-78601000D03*
X130213100Y-77101000D03*
X128587500Y-78601000D03*
X128587500Y-77101000D03*
D20*
X102717600Y-72136000D03*
D21*
X100177600Y-72136000D03*
D22*
X123877200Y-83032600D03*
X120777200Y-83032600D03*
D20*
X125984000Y-75184000D03*
D21*
X128524000Y-75184000D03*
X131064000Y-75184000D03*
D23*
X129133600Y-89865200D03*
X132308600Y-89865200D03*
X135483600Y-89865200D03*
X127889000Y-72263000D03*
X131064000Y-72263000D03*
X134239000Y-72263000D03*
D24*
X98806000Y-90424000D03*
D25*
X101346000Y-90424000D03*
D24*
X106680000Y-90424000D03*
D25*
X104140000Y-90424000D03*
D26*
X122682000Y-89408000D03*
M02*
