M48
;DRILL file {KiCad 4.0.6} date 2017 October 10, Tuesday 00:19:54
;FORMAT={-:-/ absolute / inch / decimal}
FMAT,2
INCH,TZ
T1C0.013
T2C0.031
T3C0.032
T4C0.035
T5C0.039
T6C0.087
%
G90
G05
M72
T1
X4.151Y-2.987
X4.275Y-2.855
X4.356Y-3.115
X4.358Y-3.179
X4.36Y-2.855
X4.616Y-3.011
X4.655Y-2.85
X4.66Y-3.01
X4.843Y-2.841
X4.845Y-2.995
X5.275Y-3.017
X5.275Y-3.065
X5.275Y-3.125
T2
X3.944Y-2.84
X4.044Y-2.84
X4.96Y-2.96
X5.06Y-2.96
X5.16Y-2.96
T3
X5.16Y-2.845
X5.209Y-3.538
X5.285Y-2.845
X5.334Y-3.538
T4
X3.89Y-3.56
X3.99Y-3.56
X4.1Y-3.56
X4.2Y-3.56
T5
X5.035Y-2.845
X5.084Y-3.538
T6
X4.83Y-3.52
T0
M30
