G04 #@! TF.FileFunction,Legend,Bot*
%FSLAX46Y46*%
G04 Gerber Fmt 4.6, Leading zero omitted, Abs format (unit mm)*
G04 Created by KiCad (PCBNEW 4.0.6) date 2017 October 10, Tuesday 00:19:03*
%MOMM*%
%LPD*%
G01*
G04 APERTURE LIST*
%ADD10C,0.100000*%
%ADD11C,0.125000*%
%ADD12C,0.200000*%
%ADD13C,0.180000*%
%ADD14C,0.150000*%
%ADD15C,0.375000*%
%ADD16C,0.120000*%
G04 APERTURE END LIST*
D10*
D11*
X119914274Y-90980390D02*
X120152369Y-90980390D01*
X120152369Y-90480390D01*
X119747607Y-90980390D02*
X119747607Y-90647057D01*
X119747607Y-90480390D02*
X119771417Y-90504200D01*
X119747607Y-90528010D01*
X119723798Y-90504200D01*
X119747607Y-90480390D01*
X119747607Y-90528010D01*
X119295227Y-90956581D02*
X119342846Y-90980390D01*
X119438084Y-90980390D01*
X119485703Y-90956581D01*
X119509512Y-90932771D01*
X119533322Y-90885152D01*
X119533322Y-90742295D01*
X119509512Y-90694676D01*
X119485703Y-90670867D01*
X119438084Y-90647057D01*
X119342846Y-90647057D01*
X119295227Y-90670867D01*
X118890465Y-90956581D02*
X118938084Y-90980390D01*
X119033322Y-90980390D01*
X119080941Y-90956581D01*
X119104751Y-90908962D01*
X119104751Y-90718486D01*
X119080941Y-90670867D01*
X119033322Y-90647057D01*
X118938084Y-90647057D01*
X118890465Y-90670867D01*
X118866656Y-90718486D01*
X118866656Y-90766105D01*
X119104751Y-90813724D01*
X118652370Y-90647057D02*
X118652370Y-90980390D01*
X118652370Y-90694676D02*
X118628561Y-90670867D01*
X118580942Y-90647057D01*
X118509513Y-90647057D01*
X118461894Y-90670867D01*
X118438085Y-90718486D01*
X118438085Y-90980390D01*
X118223799Y-90956581D02*
X118176180Y-90980390D01*
X118080942Y-90980390D01*
X118033323Y-90956581D01*
X118009513Y-90908962D01*
X118009513Y-90885152D01*
X118033323Y-90837533D01*
X118080942Y-90813724D01*
X118152370Y-90813724D01*
X118199989Y-90789914D01*
X118223799Y-90742295D01*
X118223799Y-90718486D01*
X118199989Y-90670867D01*
X118152370Y-90647057D01*
X118080942Y-90647057D01*
X118033323Y-90670867D01*
X117604751Y-90956581D02*
X117652370Y-90980390D01*
X117747608Y-90980390D01*
X117795227Y-90956581D01*
X117819037Y-90908962D01*
X117819037Y-90718486D01*
X117795227Y-90670867D01*
X117747608Y-90647057D01*
X117652370Y-90647057D01*
X117604751Y-90670867D01*
X117580942Y-90718486D01*
X117580942Y-90766105D01*
X117819037Y-90813724D01*
X117152371Y-90980390D02*
X117152371Y-90480390D01*
X117152371Y-90956581D02*
X117199990Y-90980390D01*
X117295228Y-90980390D01*
X117342847Y-90956581D01*
X117366656Y-90932771D01*
X117390466Y-90885152D01*
X117390466Y-90742295D01*
X117366656Y-90694676D01*
X117342847Y-90670867D01*
X117295228Y-90647057D01*
X117199990Y-90647057D01*
X117152371Y-90670867D01*
X116319038Y-90647057D02*
X116319038Y-90980390D01*
X116533323Y-90647057D02*
X116533323Y-90908962D01*
X116509514Y-90956581D01*
X116461895Y-90980390D01*
X116390466Y-90980390D01*
X116342847Y-90956581D01*
X116319038Y-90932771D01*
X116080942Y-90647057D02*
X116080942Y-90980390D01*
X116080942Y-90694676D02*
X116057133Y-90670867D01*
X116009514Y-90647057D01*
X115938085Y-90647057D01*
X115890466Y-90670867D01*
X115866657Y-90718486D01*
X115866657Y-90980390D01*
X115414276Y-90980390D02*
X115414276Y-90480390D01*
X115414276Y-90956581D02*
X115461895Y-90980390D01*
X115557133Y-90980390D01*
X115604752Y-90956581D01*
X115628561Y-90932771D01*
X115652371Y-90885152D01*
X115652371Y-90742295D01*
X115628561Y-90694676D01*
X115604752Y-90670867D01*
X115557133Y-90647057D01*
X115461895Y-90647057D01*
X115414276Y-90670867D01*
X114985704Y-90956581D02*
X115033323Y-90980390D01*
X115128561Y-90980390D01*
X115176180Y-90956581D01*
X115199990Y-90908962D01*
X115199990Y-90718486D01*
X115176180Y-90670867D01*
X115128561Y-90647057D01*
X115033323Y-90647057D01*
X114985704Y-90670867D01*
X114961895Y-90718486D01*
X114961895Y-90766105D01*
X115199990Y-90813724D01*
X114747609Y-90980390D02*
X114747609Y-90647057D01*
X114747609Y-90742295D02*
X114723800Y-90694676D01*
X114699990Y-90670867D01*
X114652371Y-90647057D01*
X114604752Y-90647057D01*
X113771419Y-90932771D02*
X113795229Y-90956581D01*
X113866657Y-90980390D01*
X113914276Y-90980390D01*
X113985705Y-90956581D01*
X114033324Y-90908962D01*
X114057133Y-90861343D01*
X114080943Y-90766105D01*
X114080943Y-90694676D01*
X114057133Y-90599438D01*
X114033324Y-90551819D01*
X113985705Y-90504200D01*
X113914276Y-90480390D01*
X113866657Y-90480390D01*
X113795229Y-90504200D01*
X113771419Y-90528010D01*
X113557133Y-90718486D02*
X113390467Y-90718486D01*
X113319038Y-90980390D02*
X113557133Y-90980390D01*
X113557133Y-90480390D01*
X113319038Y-90480390D01*
X112819038Y-90980390D02*
X112985705Y-90742295D01*
X113104752Y-90980390D02*
X113104752Y-90480390D01*
X112914276Y-90480390D01*
X112866657Y-90504200D01*
X112842848Y-90528010D01*
X112819038Y-90575629D01*
X112819038Y-90647057D01*
X112842848Y-90694676D01*
X112866657Y-90718486D01*
X112914276Y-90742295D01*
X113104752Y-90742295D01*
X112604752Y-90980390D02*
X112604752Y-90480390D01*
X112319038Y-90980390D01*
X112319038Y-90480390D01*
X111604752Y-90480390D02*
X111509514Y-90480390D01*
X111461895Y-90504200D01*
X111414276Y-90551819D01*
X111390467Y-90647057D01*
X111390467Y-90813724D01*
X111414276Y-90908962D01*
X111461895Y-90956581D01*
X111509514Y-90980390D01*
X111604752Y-90980390D01*
X111652371Y-90956581D01*
X111699990Y-90908962D01*
X111723800Y-90813724D01*
X111723800Y-90647057D01*
X111699990Y-90551819D01*
X111652371Y-90504200D01*
X111604752Y-90480390D01*
X111176180Y-90980390D02*
X111176180Y-90480390D01*
X111176180Y-90718486D02*
X110890466Y-90718486D01*
X110890466Y-90980390D02*
X110890466Y-90480390D01*
X110414275Y-90980390D02*
X110652370Y-90980390D01*
X110652370Y-90480390D01*
X109914275Y-90647057D02*
X109795228Y-90980390D01*
X109676180Y-90647057D01*
X109485704Y-90932771D02*
X109461895Y-90956581D01*
X109485704Y-90980390D01*
X109509514Y-90956581D01*
X109485704Y-90932771D01*
X109485704Y-90980390D01*
X108985705Y-90980390D02*
X109271419Y-90980390D01*
X109128562Y-90980390D02*
X109128562Y-90480390D01*
X109176181Y-90551819D01*
X109223800Y-90599438D01*
X109271419Y-90623248D01*
X108771419Y-90932771D02*
X108747610Y-90956581D01*
X108771419Y-90980390D01*
X108795229Y-90956581D01*
X108771419Y-90932771D01*
X108771419Y-90980390D01*
X108557134Y-90528010D02*
X108533324Y-90504200D01*
X108485705Y-90480390D01*
X108366658Y-90480390D01*
X108319039Y-90504200D01*
X108295229Y-90528010D01*
X108271420Y-90575629D01*
X108271420Y-90623248D01*
X108295229Y-90694676D01*
X108580943Y-90980390D01*
X108271420Y-90980390D01*
D12*
X127203200Y-91236800D02*
X127203200Y-90627200D01*
X137109200Y-91236800D02*
X127203200Y-91236800D01*
X137109200Y-88442800D02*
X137109200Y-91236800D01*
X127228600Y-88442800D02*
X137109200Y-88442800D01*
X127228600Y-89027000D02*
X127228600Y-88442800D01*
X126161800Y-73634600D02*
X126161800Y-73075800D01*
X135763000Y-73634600D02*
X126161800Y-73634600D01*
X135763000Y-70891400D02*
X135763000Y-73634600D01*
X126060200Y-70891400D02*
X135763000Y-70891400D01*
X126060200Y-71196200D02*
X126060200Y-70891400D01*
D13*
X103530305Y-73726657D02*
X102006495Y-73726657D01*
X98551905Y-72024857D02*
X97028095Y-72024857D01*
X97790000Y-72786762D02*
X97790000Y-71262952D01*
D11*
X104269027Y-70711190D02*
X104269027Y-70211190D01*
X104030932Y-70377857D02*
X104030932Y-70711190D01*
X104030932Y-70425476D02*
X104007123Y-70401667D01*
X103959504Y-70377857D01*
X103888075Y-70377857D01*
X103840456Y-70401667D01*
X103816647Y-70449286D01*
X103816647Y-70711190D01*
X103578551Y-70377857D02*
X103578551Y-70877857D01*
X103578551Y-70401667D02*
X103530932Y-70377857D01*
X103435694Y-70377857D01*
X103388075Y-70401667D01*
X103364266Y-70425476D01*
X103340456Y-70473095D01*
X103340456Y-70615952D01*
X103364266Y-70663571D01*
X103388075Y-70687381D01*
X103435694Y-70711190D01*
X103530932Y-70711190D01*
X103578551Y-70687381D01*
X102911885Y-70377857D02*
X102911885Y-70711190D01*
X103126170Y-70377857D02*
X103126170Y-70639762D01*
X103102361Y-70687381D01*
X103054742Y-70711190D01*
X102983313Y-70711190D01*
X102935694Y-70687381D01*
X102911885Y-70663571D01*
X102745218Y-70377857D02*
X102554742Y-70377857D01*
X102673789Y-70211190D02*
X102673789Y-70639762D01*
X102649980Y-70687381D01*
X102602361Y-70711190D01*
X102554742Y-70711190D01*
X102388075Y-70663571D02*
X102364266Y-70687381D01*
X102388075Y-70711190D01*
X102411885Y-70687381D01*
X102388075Y-70663571D01*
X102388075Y-70711190D01*
X102388075Y-70401667D02*
X102364266Y-70425476D01*
X102388075Y-70449286D01*
X102411885Y-70425476D01*
X102388075Y-70401667D01*
X102388075Y-70449286D01*
X101554743Y-70377857D02*
X101554743Y-70711190D01*
X101673790Y-70187381D02*
X101792838Y-70544524D01*
X101483314Y-70544524D01*
X101292838Y-70520714D02*
X100911886Y-70520714D01*
X100459505Y-70211190D02*
X100554743Y-70211190D01*
X100602362Y-70235000D01*
X100626171Y-70258810D01*
X100673790Y-70330238D01*
X100697600Y-70425476D01*
X100697600Y-70615952D01*
X100673790Y-70663571D01*
X100649981Y-70687381D01*
X100602362Y-70711190D01*
X100507124Y-70711190D01*
X100459505Y-70687381D01*
X100435695Y-70663571D01*
X100411886Y-70615952D01*
X100411886Y-70496905D01*
X100435695Y-70449286D01*
X100459505Y-70425476D01*
X100507124Y-70401667D01*
X100602362Y-70401667D01*
X100649981Y-70425476D01*
X100673790Y-70449286D01*
X100697600Y-70496905D01*
X100269029Y-70211190D02*
X100102362Y-70711190D01*
X99935696Y-70211190D01*
X99388077Y-70711190D02*
X99388077Y-70211190D01*
X99269030Y-70211190D01*
X99197601Y-70235000D01*
X99149982Y-70282619D01*
X99126173Y-70330238D01*
X99102363Y-70425476D01*
X99102363Y-70496905D01*
X99126173Y-70592143D01*
X99149982Y-70639762D01*
X99197601Y-70687381D01*
X99269030Y-70711190D01*
X99388077Y-70711190D01*
X98602363Y-70663571D02*
X98626173Y-70687381D01*
X98697601Y-70711190D01*
X98745220Y-70711190D01*
X98816649Y-70687381D01*
X98864268Y-70639762D01*
X98888077Y-70592143D01*
X98911887Y-70496905D01*
X98911887Y-70425476D01*
X98888077Y-70330238D01*
X98864268Y-70282619D01*
X98816649Y-70235000D01*
X98745220Y-70211190D01*
X98697601Y-70211190D01*
X98626173Y-70235000D01*
X98602363Y-70258810D01*
D14*
X127393533Y-89317581D02*
X127060200Y-90317581D01*
X126726866Y-89317581D01*
X125822104Y-90222343D02*
X125869723Y-90269962D01*
X126012580Y-90317581D01*
X126107818Y-90317581D01*
X126250676Y-90269962D01*
X126345914Y-90174724D01*
X126393533Y-90079486D01*
X126441152Y-89889010D01*
X126441152Y-89746152D01*
X126393533Y-89555676D01*
X126345914Y-89460438D01*
X126250676Y-89365200D01*
X126107818Y-89317581D01*
X126012580Y-89317581D01*
X125869723Y-89365200D01*
X125822104Y-89412819D01*
X124822104Y-90222343D02*
X124869723Y-90269962D01*
X125012580Y-90317581D01*
X125107818Y-90317581D01*
X125250676Y-90269962D01*
X125345914Y-90174724D01*
X125393533Y-90079486D01*
X125441152Y-89889010D01*
X125441152Y-89746152D01*
X125393533Y-89555676D01*
X125345914Y-89460438D01*
X125250676Y-89365200D01*
X125107818Y-89317581D01*
X125012580Y-89317581D01*
X124869723Y-89365200D01*
X124822104Y-89412819D01*
X125856904Y-71712200D02*
X125952142Y-71664581D01*
X126094999Y-71664581D01*
X126237857Y-71712200D01*
X126333095Y-71807438D01*
X126380714Y-71902676D01*
X126428333Y-72093152D01*
X126428333Y-72236010D01*
X126380714Y-72426486D01*
X126333095Y-72521724D01*
X126237857Y-72616962D01*
X126094999Y-72664581D01*
X125999761Y-72664581D01*
X125856904Y-72616962D01*
X125809285Y-72569343D01*
X125809285Y-72236010D01*
X125999761Y-72236010D01*
X125380714Y-72664581D02*
X125380714Y-71664581D01*
X124809285Y-72664581D01*
X124809285Y-71664581D01*
X124333095Y-72664581D02*
X124333095Y-71664581D01*
X124095000Y-71664581D01*
X123952142Y-71712200D01*
X123856904Y-71807438D01*
X123809285Y-71902676D01*
X123761666Y-72093152D01*
X123761666Y-72236010D01*
X123809285Y-72426486D01*
X123856904Y-72521724D01*
X123952142Y-72616962D01*
X124095000Y-72664581D01*
X124333095Y-72664581D01*
D11*
X107259199Y-87260867D02*
X107259199Y-86794200D01*
X107259199Y-86927533D02*
X107225866Y-86860867D01*
X107192533Y-86827533D01*
X107125866Y-86794200D01*
X107059199Y-86794200D01*
X106559200Y-87227533D02*
X106625866Y-87260867D01*
X106759200Y-87260867D01*
X106825866Y-87227533D01*
X106859200Y-87160867D01*
X106859200Y-86894200D01*
X106825866Y-86827533D01*
X106759200Y-86794200D01*
X106625866Y-86794200D01*
X106559200Y-86827533D01*
X106525866Y-86894200D01*
X106525866Y-86960867D01*
X106859200Y-87027533D01*
X105925866Y-87260867D02*
X105925866Y-86560867D01*
X105925866Y-87227533D02*
X105992533Y-87260867D01*
X106125866Y-87260867D01*
X106192533Y-87227533D01*
X106225866Y-87194200D01*
X106259200Y-87127533D01*
X106259200Y-86927533D01*
X106225866Y-86860867D01*
X106192533Y-86827533D01*
X106125866Y-86794200D01*
X105992533Y-86794200D01*
X105925866Y-86827533D01*
X105092533Y-86527533D02*
X105692533Y-87427533D01*
X104759200Y-87260867D02*
X104825867Y-87227533D01*
X104859200Y-87160867D01*
X104859200Y-86560867D01*
X104392533Y-87260867D02*
X104459200Y-87227533D01*
X104492533Y-87194200D01*
X104525867Y-87127533D01*
X104525867Y-86927533D01*
X104492533Y-86860867D01*
X104459200Y-86827533D01*
X104392533Y-86794200D01*
X104292533Y-86794200D01*
X104225867Y-86827533D01*
X104192533Y-86860867D01*
X104159200Y-86927533D01*
X104159200Y-87127533D01*
X104192533Y-87194200D01*
X104225867Y-87227533D01*
X104292533Y-87260867D01*
X104392533Y-87260867D01*
X103925867Y-86794200D02*
X103792534Y-87260867D01*
X103659200Y-86927533D01*
X103525867Y-87260867D01*
X103392534Y-86794200D01*
X101975199Y-86768800D02*
X101975199Y-87335467D01*
X102008533Y-87402133D01*
X102041866Y-87435467D01*
X102108533Y-87468800D01*
X102208533Y-87468800D01*
X102275199Y-87435467D01*
X101975199Y-87202133D02*
X102041866Y-87235467D01*
X102175199Y-87235467D01*
X102241866Y-87202133D01*
X102275199Y-87168800D01*
X102308533Y-87102133D01*
X102308533Y-86902133D01*
X102275199Y-86835467D01*
X102241866Y-86802133D01*
X102175199Y-86768800D01*
X102041866Y-86768800D01*
X101975199Y-86802133D01*
X101641866Y-87235467D02*
X101641866Y-86768800D01*
X101641866Y-86902133D02*
X101608533Y-86835467D01*
X101575200Y-86802133D01*
X101508533Y-86768800D01*
X101441866Y-86768800D01*
X100941867Y-87202133D02*
X101008533Y-87235467D01*
X101141867Y-87235467D01*
X101208533Y-87202133D01*
X101241867Y-87135467D01*
X101241867Y-86868800D01*
X101208533Y-86802133D01*
X101141867Y-86768800D01*
X101008533Y-86768800D01*
X100941867Y-86802133D01*
X100908533Y-86868800D01*
X100908533Y-86935467D01*
X101241867Y-87002133D01*
X100341867Y-87202133D02*
X100408533Y-87235467D01*
X100541867Y-87235467D01*
X100608533Y-87202133D01*
X100641867Y-87135467D01*
X100641867Y-86868800D01*
X100608533Y-86802133D01*
X100541867Y-86768800D01*
X100408533Y-86768800D01*
X100341867Y-86802133D01*
X100308533Y-86868800D01*
X100308533Y-86935467D01*
X100641867Y-87002133D01*
X100008533Y-86768800D02*
X100008533Y-87235467D01*
X100008533Y-86835467D02*
X99975200Y-86802133D01*
X99908533Y-86768800D01*
X99808533Y-86768800D01*
X99741867Y-86802133D01*
X99708533Y-86868800D01*
X99708533Y-87235467D01*
X98875200Y-86502133D02*
X99475200Y-87402133D01*
X98541867Y-87235467D02*
X98608534Y-87202133D01*
X98641867Y-87168800D01*
X98675201Y-87102133D01*
X98675201Y-86902133D01*
X98641867Y-86835467D01*
X98608534Y-86802133D01*
X98541867Y-86768800D01*
X98441867Y-86768800D01*
X98375201Y-86802133D01*
X98341867Y-86835467D01*
X98308534Y-86902133D01*
X98308534Y-87102133D01*
X98341867Y-87168800D01*
X98375201Y-87202133D01*
X98441867Y-87235467D01*
X98541867Y-87235467D01*
X98008534Y-87235467D02*
X98008534Y-86535467D01*
X97941868Y-86968800D02*
X97741868Y-87235467D01*
X97741868Y-86768800D02*
X98008534Y-87035467D01*
D12*
X106654600Y-89179400D02*
X106705400Y-89179400D01*
X106654600Y-88493600D02*
X106654600Y-89179400D01*
X105435400Y-88493600D02*
X106654600Y-88493600D01*
X105486200Y-87833200D02*
X105486200Y-89103200D01*
X105333800Y-88493600D02*
X104724200Y-87884000D01*
X104673400Y-89154000D02*
X105333800Y-88493600D01*
X104673400Y-87884000D02*
X104673400Y-89154000D01*
X104724200Y-88442800D02*
X104698800Y-88442800D01*
X104140000Y-88442800D02*
X104724200Y-88442800D01*
X104140000Y-89179400D02*
X104140000Y-88442800D01*
X98933000Y-89204800D02*
X98907600Y-89204800D01*
X98933000Y-88417400D02*
X98933000Y-89204800D01*
X100101400Y-88417400D02*
X98933000Y-88417400D01*
X100101400Y-89077800D02*
X100101400Y-88417400D01*
X100101400Y-87807800D02*
X100101400Y-89077800D01*
X100253800Y-88417400D02*
X100863400Y-87807800D01*
X100888800Y-89052400D02*
X100253800Y-88417400D01*
X100888800Y-87909400D02*
X100888800Y-89052400D01*
X100888800Y-88442800D02*
X100888800Y-88417400D01*
X101346000Y-88442800D02*
X100888800Y-88442800D01*
X101346000Y-89204800D02*
X101346000Y-88442800D01*
D11*
X132409142Y-79446381D02*
X132837714Y-79446381D01*
X132623428Y-79446381D02*
X132623428Y-78446381D01*
X132694857Y-78589238D01*
X132766285Y-78684476D01*
X132837714Y-78732095D01*
X132123428Y-78541619D02*
X132087714Y-78494000D01*
X132016285Y-78446381D01*
X131837714Y-78446381D01*
X131766285Y-78494000D01*
X131730571Y-78541619D01*
X131694856Y-78636857D01*
X131694856Y-78732095D01*
X131730571Y-78874952D01*
X132159142Y-79446381D01*
X131694856Y-79446381D01*
X131373428Y-79065429D02*
X130801999Y-79065429D01*
X130409142Y-79446381D02*
X130266285Y-79446381D01*
X130194857Y-79398762D01*
X130159142Y-79351143D01*
X130087714Y-79208286D01*
X130051999Y-79017810D01*
X130051999Y-78636857D01*
X130087714Y-78541619D01*
X130123428Y-78494000D01*
X130194857Y-78446381D01*
X130337714Y-78446381D01*
X130409142Y-78494000D01*
X130444857Y-78541619D01*
X130480571Y-78636857D01*
X130480571Y-78874952D01*
X130444857Y-78970190D01*
X130409142Y-79017810D01*
X130337714Y-79065429D01*
X130194857Y-79065429D01*
X130123428Y-79017810D01*
X130087714Y-78970190D01*
X130051999Y-78874952D01*
X129730571Y-79065429D02*
X129159142Y-79065429D01*
X128480571Y-78446381D02*
X128623428Y-78446381D01*
X128694857Y-78494000D01*
X128730571Y-78541619D01*
X128802000Y-78684476D01*
X128837714Y-78874952D01*
X128837714Y-79255905D01*
X128802000Y-79351143D01*
X128766285Y-79398762D01*
X128694857Y-79446381D01*
X128552000Y-79446381D01*
X128480571Y-79398762D01*
X128444857Y-79351143D01*
X128409142Y-79255905D01*
X128409142Y-79017810D01*
X128444857Y-78922571D01*
X128480571Y-78874952D01*
X128552000Y-78827333D01*
X128694857Y-78827333D01*
X128766285Y-78874952D01*
X128802000Y-78922571D01*
X128837714Y-79017810D01*
X128194856Y-78446381D02*
X127944856Y-79446381D01*
X127694856Y-78446381D01*
D12*
X125984000Y-81026000D02*
X129794000Y-81026000D01*
X125984000Y-80264000D02*
X125984000Y-81026000D01*
X130302000Y-76708000D02*
X130556000Y-76454000D01*
X130302000Y-77470000D02*
X130302000Y-76708000D01*
X128524000Y-77470000D02*
X128524000Y-76454000D01*
X130661210Y-81026000D02*
G75*
G03X130661210Y-81026000I-359210J0D01*
G01*
X132439210Y-77724000D02*
G75*
G03X132439210Y-77724000I-359210J0D01*
G01*
X130661210Y-77724000D02*
G75*
G03X130661210Y-77724000I-359210J0D01*
G01*
X128883210Y-77724000D02*
G75*
G03X128883210Y-77724000I-359210J0D01*
G01*
X125984000Y-76708000D02*
X125984000Y-80264000D01*
D15*
X136798086Y-83546443D02*
X136583800Y-83617871D01*
X136226657Y-83617871D01*
X136083800Y-83546443D01*
X136012371Y-83475014D01*
X135940943Y-83332157D01*
X135940943Y-83189300D01*
X136012371Y-83046443D01*
X136083800Y-82975014D01*
X136226657Y-82903586D01*
X136512371Y-82832157D01*
X136655229Y-82760729D01*
X136726657Y-82689300D01*
X136798086Y-82546443D01*
X136798086Y-82403586D01*
X136726657Y-82260729D01*
X136655229Y-82189300D01*
X136512371Y-82117871D01*
X136155229Y-82117871D01*
X135940943Y-82189300D01*
X135012372Y-82117871D02*
X134726658Y-82117871D01*
X134583800Y-82189300D01*
X134440943Y-82332157D01*
X134369515Y-82617871D01*
X134369515Y-83117871D01*
X134440943Y-83403586D01*
X134583800Y-83546443D01*
X134726658Y-83617871D01*
X135012372Y-83617871D01*
X135155229Y-83546443D01*
X135298086Y-83403586D01*
X135369515Y-83117871D01*
X135369515Y-82617871D01*
X135298086Y-82332157D01*
X135155229Y-82189300D01*
X135012372Y-82117871D01*
X133940943Y-82117871D02*
X133083800Y-82117871D01*
X133512371Y-83617871D02*
X133512371Y-82117871D01*
X132655229Y-83189300D02*
X131940943Y-83189300D01*
X132798086Y-83617871D02*
X132298086Y-82117871D01*
X131798086Y-83617871D01*
X130369515Y-82117871D02*
X129512372Y-82117871D01*
X129940943Y-83617871D02*
X129940943Y-82117871D01*
X128440944Y-83546443D02*
X128583801Y-83617871D01*
X128869515Y-83617871D01*
X129012372Y-83546443D01*
X129083801Y-83403586D01*
X129083801Y-82832157D01*
X129012372Y-82689300D01*
X128869515Y-82617871D01*
X128583801Y-82617871D01*
X128440944Y-82689300D01*
X128369515Y-82832157D01*
X128369515Y-82975014D01*
X129083801Y-83117871D01*
X127083801Y-83546443D02*
X127226658Y-83617871D01*
X127512372Y-83617871D01*
X127655230Y-83546443D01*
X127726658Y-83475014D01*
X127798087Y-83332157D01*
X127798087Y-82903586D01*
X127726658Y-82760729D01*
X127655230Y-82689300D01*
X127512372Y-82617871D01*
X127226658Y-82617871D01*
X127083801Y-82689300D01*
X126440944Y-83617871D02*
X126440944Y-82117871D01*
X125798087Y-83617871D02*
X125798087Y-82832157D01*
X125869516Y-82689300D01*
X126012373Y-82617871D01*
X126226658Y-82617871D01*
X126369516Y-82689300D01*
X126440944Y-82760729D01*
X125083801Y-82617871D02*
X125083801Y-83617871D01*
X125083801Y-82760729D02*
X125012373Y-82689300D01*
X124869515Y-82617871D01*
X124655230Y-82617871D01*
X124512373Y-82689300D01*
X124440944Y-82832157D01*
X124440944Y-83617871D01*
X123512372Y-83617871D02*
X123655230Y-83546443D01*
X123726658Y-83475014D01*
X123798087Y-83332157D01*
X123798087Y-82903586D01*
X123726658Y-82760729D01*
X123655230Y-82689300D01*
X123512372Y-82617871D01*
X123298087Y-82617871D01*
X123155230Y-82689300D01*
X123083801Y-82760729D01*
X123012372Y-82903586D01*
X123012372Y-83332157D01*
X123083801Y-83475014D01*
X123155230Y-83546443D01*
X123298087Y-83617871D01*
X123512372Y-83617871D01*
X122155229Y-83617871D02*
X122298087Y-83546443D01*
X122369515Y-83403586D01*
X122369515Y-82117871D01*
X121369515Y-83617871D02*
X121512373Y-83546443D01*
X121583801Y-83475014D01*
X121655230Y-83332157D01*
X121655230Y-82903586D01*
X121583801Y-82760729D01*
X121512373Y-82689300D01*
X121369515Y-82617871D01*
X121155230Y-82617871D01*
X121012373Y-82689300D01*
X120940944Y-82760729D01*
X120869515Y-82903586D01*
X120869515Y-83332157D01*
X120940944Y-83475014D01*
X121012373Y-83546443D01*
X121155230Y-83617871D01*
X121369515Y-83617871D01*
X119583801Y-82617871D02*
X119583801Y-83832157D01*
X119655230Y-83975014D01*
X119726658Y-84046443D01*
X119869515Y-84117871D01*
X120083801Y-84117871D01*
X120226658Y-84046443D01*
X119583801Y-83546443D02*
X119726658Y-83617871D01*
X120012372Y-83617871D01*
X120155230Y-83546443D01*
X120226658Y-83475014D01*
X120298087Y-83332157D01*
X120298087Y-82903586D01*
X120226658Y-82760729D01*
X120155230Y-82689300D01*
X120012372Y-82617871D01*
X119726658Y-82617871D01*
X119583801Y-82689300D01*
X119012372Y-82617871D02*
X118655229Y-83617871D01*
X118298087Y-82617871D02*
X118655229Y-83617871D01*
X118798087Y-83975014D01*
X118869515Y-84046443D01*
X119012372Y-84117871D01*
X136726657Y-86242871D02*
X136726657Y-84742871D01*
X136726657Y-85314300D02*
X136583800Y-85242871D01*
X136298086Y-85242871D01*
X136155229Y-85314300D01*
X136083800Y-85385729D01*
X136012371Y-85528586D01*
X136012371Y-85957157D01*
X136083800Y-86100014D01*
X136155229Y-86171443D01*
X136298086Y-86242871D01*
X136583800Y-86242871D01*
X136726657Y-86171443D01*
X135512371Y-85242871D02*
X135155228Y-86242871D01*
X134798086Y-85242871D02*
X135155228Y-86242871D01*
X135298086Y-86600014D01*
X135369514Y-86671443D01*
X135512371Y-86742871D01*
X133083800Y-86242871D02*
X133083800Y-84742871D01*
X132726657Y-84742871D01*
X132512372Y-84814300D01*
X132369514Y-84957157D01*
X132298086Y-85100014D01*
X132226657Y-85385729D01*
X132226657Y-85600014D01*
X132298086Y-85885729D01*
X132369514Y-86028586D01*
X132512372Y-86171443D01*
X132726657Y-86242871D01*
X133083800Y-86242871D01*
X131583800Y-86242871D02*
X131583800Y-84742871D01*
X130726657Y-86242871D02*
X131369514Y-85385729D01*
X130726657Y-84742871D02*
X131583800Y-85600014D01*
X130226657Y-84742871D02*
X129298086Y-84742871D01*
X129798086Y-85314300D01*
X129583800Y-85314300D01*
X129440943Y-85385729D01*
X129369514Y-85457157D01*
X129298086Y-85600014D01*
X129298086Y-85957157D01*
X129369514Y-86100014D01*
X129440943Y-86171443D01*
X129583800Y-86242871D01*
X130012372Y-86242871D01*
X130155229Y-86171443D01*
X130226657Y-86100014D01*
X128655229Y-86242871D02*
X128655229Y-84742871D01*
X128155229Y-84742871D02*
X127298086Y-84742871D01*
X127726657Y-86242871D02*
X127726657Y-84742871D01*
D16*
X105974000Y-79246000D02*
X105044000Y-79246000D01*
X102814000Y-79246000D02*
X103744000Y-79246000D01*
X102814000Y-79246000D02*
X102814000Y-77086000D01*
X105974000Y-79246000D02*
X105974000Y-77786000D01*
X108710000Y-77160000D02*
X108710000Y-78090000D01*
X108710000Y-80320000D02*
X108710000Y-79390000D01*
X108710000Y-80320000D02*
X106550000Y-80320000D01*
X108710000Y-77160000D02*
X107250000Y-77160000D01*
X102698000Y-74684000D02*
X102698000Y-75684000D01*
X104058000Y-75684000D02*
X104058000Y-74684000D01*
X98280600Y-79724800D02*
X99280600Y-79724800D01*
X99280600Y-78364800D02*
X98280600Y-78364800D01*
X107704000Y-82087000D02*
X108704000Y-82087000D01*
X108704000Y-80727000D02*
X107704000Y-80727000D01*
X98750000Y-75440000D02*
X99680000Y-75440000D01*
X101910000Y-75440000D02*
X100980000Y-75440000D01*
X101910000Y-75440000D02*
X101910000Y-77600000D01*
X98750000Y-75440000D02*
X98750000Y-76900000D01*
X105836000Y-73398000D02*
X105836000Y-72398000D01*
X104476000Y-72398000D02*
X104476000Y-73398000D01*
X100820600Y-79724800D02*
X101820600Y-79724800D01*
X101820600Y-78364800D02*
X100820600Y-78364800D01*
D14*
X104565438Y-81446619D02*
X104660676Y-81399000D01*
X104755914Y-81303762D01*
X104898771Y-81160905D01*
X104994010Y-81113286D01*
X105089248Y-81113286D01*
X105041629Y-81351381D02*
X105136867Y-81303762D01*
X105232105Y-81208524D01*
X105279724Y-81018048D01*
X105279724Y-80684714D01*
X105232105Y-80494238D01*
X105136867Y-80399000D01*
X105041629Y-80351381D01*
X104851152Y-80351381D01*
X104755914Y-80399000D01*
X104660676Y-80494238D01*
X104613057Y-80684714D01*
X104613057Y-81018048D01*
X104660676Y-81208524D01*
X104755914Y-81303762D01*
X104851152Y-81351381D01*
X105041629Y-81351381D01*
X103660676Y-81351381D02*
X104232105Y-81351381D01*
X103946391Y-81351381D02*
X103946391Y-80351381D01*
X104041629Y-80494238D01*
X104136867Y-80589476D01*
X104232105Y-80637095D01*
X108781838Y-76849219D02*
X108877076Y-76801600D01*
X108972314Y-76706362D01*
X109115171Y-76563505D01*
X109210410Y-76515886D01*
X109305648Y-76515886D01*
X109258029Y-76753981D02*
X109353267Y-76706362D01*
X109448505Y-76611124D01*
X109496124Y-76420648D01*
X109496124Y-76087314D01*
X109448505Y-75896838D01*
X109353267Y-75801600D01*
X109258029Y-75753981D01*
X109067552Y-75753981D01*
X108972314Y-75801600D01*
X108877076Y-75896838D01*
X108829457Y-76087314D01*
X108829457Y-76420648D01*
X108877076Y-76611124D01*
X108972314Y-76706362D01*
X109067552Y-76753981D01*
X109258029Y-76753981D01*
X108448505Y-75849219D02*
X108400886Y-75801600D01*
X108305648Y-75753981D01*
X108067552Y-75753981D01*
X107972314Y-75801600D01*
X107924695Y-75849219D01*
X107877076Y-75944457D01*
X107877076Y-76039695D01*
X107924695Y-76182552D01*
X108496124Y-76753981D01*
X107877076Y-76753981D01*
D11*
X104772590Y-75837267D02*
X104534495Y-75670600D01*
X104772590Y-75551553D02*
X104272590Y-75551553D01*
X104272590Y-75742029D01*
X104296400Y-75789648D01*
X104320210Y-75813457D01*
X104367829Y-75837267D01*
X104439257Y-75837267D01*
X104486876Y-75813457D01*
X104510686Y-75789648D01*
X104534495Y-75742029D01*
X104534495Y-75551553D01*
X104272590Y-76003934D02*
X104272590Y-76337267D01*
X104772590Y-76122981D01*
X98889333Y-80439390D02*
X99056000Y-80201295D01*
X99175047Y-80439390D02*
X99175047Y-79939390D01*
X98984571Y-79939390D01*
X98936952Y-79963200D01*
X98913143Y-79987010D01*
X98889333Y-80034629D01*
X98889333Y-80106057D01*
X98913143Y-80153676D01*
X98936952Y-80177486D01*
X98984571Y-80201295D01*
X99175047Y-80201295D01*
X98603619Y-80153676D02*
X98651238Y-80129867D01*
X98675047Y-80106057D01*
X98698857Y-80058438D01*
X98698857Y-80034629D01*
X98675047Y-79987010D01*
X98651238Y-79963200D01*
X98603619Y-79939390D01*
X98508381Y-79939390D01*
X98460762Y-79963200D01*
X98436952Y-79987010D01*
X98413143Y-80034629D01*
X98413143Y-80058438D01*
X98436952Y-80106057D01*
X98460762Y-80129867D01*
X98508381Y-80153676D01*
X98603619Y-80153676D01*
X98651238Y-80177486D01*
X98675047Y-80201295D01*
X98698857Y-80248914D01*
X98698857Y-80344152D01*
X98675047Y-80391771D01*
X98651238Y-80415581D01*
X98603619Y-80439390D01*
X98508381Y-80439390D01*
X98460762Y-80415581D01*
X98436952Y-80391771D01*
X98413143Y-80344152D01*
X98413143Y-80248914D01*
X98436952Y-80201295D01*
X98460762Y-80177486D01*
X98508381Y-80153676D01*
X106753790Y-81060172D02*
X106515695Y-80893505D01*
X106753790Y-80774458D02*
X106253790Y-80774458D01*
X106253790Y-80964934D01*
X106277600Y-81012553D01*
X106301410Y-81036362D01*
X106349029Y-81060172D01*
X106420457Y-81060172D01*
X106468076Y-81036362D01*
X106491886Y-81012553D01*
X106515695Y-80964934D01*
X106515695Y-80774458D01*
X106753790Y-81536362D02*
X106753790Y-81250648D01*
X106753790Y-81393505D02*
X106253790Y-81393505D01*
X106325219Y-81345886D01*
X106372838Y-81298267D01*
X106396648Y-81250648D01*
X106253790Y-81845886D02*
X106253790Y-81893505D01*
X106277600Y-81941124D01*
X106301410Y-81964933D01*
X106349029Y-81988743D01*
X106444267Y-82012552D01*
X106563314Y-82012552D01*
X106658552Y-81988743D01*
X106706171Y-81964933D01*
X106729981Y-81941124D01*
X106753790Y-81893505D01*
X106753790Y-81845886D01*
X106729981Y-81798267D01*
X106706171Y-81774457D01*
X106658552Y-81750648D01*
X106563314Y-81726838D01*
X106444267Y-81726838D01*
X106349029Y-81750648D01*
X106301410Y-81774457D01*
X106277600Y-81798267D01*
X106253790Y-81845886D01*
D14*
X98343981Y-74598305D02*
X97343981Y-74598305D01*
X97343981Y-74836400D01*
X97391600Y-74979258D01*
X97486838Y-75074496D01*
X97582076Y-75122115D01*
X97772552Y-75169734D01*
X97915410Y-75169734D01*
X98105886Y-75122115D01*
X98201124Y-75074496D01*
X98296362Y-74979258D01*
X98343981Y-74836400D01*
X98343981Y-74598305D01*
X97343981Y-75503067D02*
X97343981Y-76122115D01*
X97724933Y-75788781D01*
X97724933Y-75931639D01*
X97772552Y-76026877D01*
X97820171Y-76074496D01*
X97915410Y-76122115D01*
X98153505Y-76122115D01*
X98248743Y-76074496D01*
X98296362Y-76026877D01*
X98343981Y-75931639D01*
X98343981Y-75645924D01*
X98296362Y-75550686D01*
X98248743Y-75503067D01*
D11*
X105239333Y-71447790D02*
X105406000Y-71209695D01*
X105525047Y-71447790D02*
X105525047Y-70947790D01*
X105334571Y-70947790D01*
X105286952Y-70971600D01*
X105263143Y-70995410D01*
X105239333Y-71043029D01*
X105239333Y-71114457D01*
X105263143Y-71162076D01*
X105286952Y-71185886D01*
X105334571Y-71209695D01*
X105525047Y-71209695D01*
X104810762Y-70947790D02*
X104906000Y-70947790D01*
X104953619Y-70971600D01*
X104977428Y-70995410D01*
X105025047Y-71066838D01*
X105048857Y-71162076D01*
X105048857Y-71352552D01*
X105025047Y-71400171D01*
X105001238Y-71423981D01*
X104953619Y-71447790D01*
X104858381Y-71447790D01*
X104810762Y-71423981D01*
X104786952Y-71400171D01*
X104763143Y-71352552D01*
X104763143Y-71233505D01*
X104786952Y-71185886D01*
X104810762Y-71162076D01*
X104858381Y-71138267D01*
X104953619Y-71138267D01*
X105001238Y-71162076D01*
X105025047Y-71185886D01*
X105048857Y-71233505D01*
X101454733Y-80439390D02*
X101621400Y-80201295D01*
X101740447Y-80439390D02*
X101740447Y-79939390D01*
X101549971Y-79939390D01*
X101502352Y-79963200D01*
X101478543Y-79987010D01*
X101454733Y-80034629D01*
X101454733Y-80106057D01*
X101478543Y-80153676D01*
X101502352Y-80177486D01*
X101549971Y-80201295D01*
X101740447Y-80201295D01*
X101216638Y-80439390D02*
X101121400Y-80439390D01*
X101073781Y-80415581D01*
X101049971Y-80391771D01*
X101002352Y-80320343D01*
X100978543Y-80225105D01*
X100978543Y-80034629D01*
X101002352Y-79987010D01*
X101026162Y-79963200D01*
X101073781Y-79939390D01*
X101169019Y-79939390D01*
X101216638Y-79963200D01*
X101240447Y-79987010D01*
X101264257Y-80034629D01*
X101264257Y-80153676D01*
X101240447Y-80201295D01*
X101216638Y-80225105D01*
X101169019Y-80248914D01*
X101073781Y-80248914D01*
X101026162Y-80225105D01*
X101002352Y-80201295D01*
X100978543Y-80153676D01*
M02*
